<svg width="56" height="56" viewBox="0 0 56 56" fill="none" xmlns="http://www.w3.org/2000/svg">
<path d="M31.1667 35.9167L35.9167 31.1667L31.1667 26.4167M24.8333 20.0833L20.0833 24.8333L24.8333 29.5833M21.35 42.25H34.65C37.3102 42.25 38.6404 42.25 39.6565 41.7323C40.5502 41.2769 41.2769 40.5502 41.7323 39.6565C42.25 38.6404 42.25 37.3103 42.25 34.65V21.35C42.25 18.6898 42.25 17.3596 41.7323 16.3435C41.2769 15.4498 40.5502 14.7231 39.6565 14.2677C38.6404 13.75 37.3103 13.75 34.65 13.75H21.35C18.6898 13.75 17.3596 13.75 16.3435 14.2677C15.4498 14.7231 14.7231 15.4498 14.2677 16.3435C13.75 17.3596 13.75 18.6898 13.75 21.35V34.65C13.75 37.3102 13.75 38.6404 14.2677 39.6565C14.7231 40.5502 15.4498 41.2769 16.3435 41.7323C17.3596 42.25 18.6898 42.25 21.35 42.25Z" stroke="#15172F" stroke-width="2" stroke-linecap="round" stroke-linejoin="round"/>
</svg>
