<svg width="56" height="56" viewBox="0 0 56 56" fill="none" xmlns="http://www.w3.org/2000/svg">
<path d="M43.8327 23.25H12.166M31.166 36.7083L35.1243 32.75L31.166 28.7917M24.8327 28.7917L20.8743 32.75L24.8327 36.7083M12.166 21.35L12.166 34.65C12.166 37.3102 12.166 38.6404 12.6837 39.6564C13.1391 40.5502 13.8658 41.2769 14.7596 41.7323C15.7756 42.25 17.1058 42.25 19.766 42.25H36.2327C38.8929 42.25 40.2231 42.25 41.2391 41.7323C42.1329 41.2769 42.8596 40.5502 43.315 39.6565C43.8327 38.6404 43.8327 37.3102 43.8327 34.65V21.35C43.8327 18.6898 43.8327 17.3596 43.315 16.3435C42.8596 15.4498 42.1329 14.7231 41.2391 14.2677C40.2231 13.75 38.8929 13.75 36.2327 13.75L19.766 13.75C17.1058 13.75 15.7756 13.75 14.7596 14.2677C13.8658 14.7231 13.1391 15.4498 12.6837 16.3435C12.166 17.3596 12.166 18.6898 12.166 21.35Z" stroke="black" stroke-width="2" stroke-linecap="round" stroke-linejoin="round"/>
</svg>
