<svg width="196" height="48" viewBox="0 0 196 48" fill="black" xmlns="http://www.w3.org/2000/svg">
<g clip-path="url(#clip0_424_5197)"> 
<path d="M27.6433 39.7896C23.4442 41.5587 18.7147 41.5894 14.4929 39.875C10.2712 38.1607 6.90209 34.8413 5.12519 30.6454C4.47984 29.1218 4.06037 27.5122 3.88006 25.8674H0C0.472847 31.0975 2.88571 35.9613 6.76393 39.502C10.6421 43.0427 15.7049 45.004 20.9563 45C23.77 45.0057 26.556 44.4436 29.1473 43.3472C29.7967 43.0726 30.428 42.7673 31.041 42.4313L28.1694 39.5555C27.9952 39.636 27.8206 39.7175 27.6433 39.7896Z" fill="black"/>
<path d="M40.3433 15.7675C38.8624 12.2585 36.4562 9.21757 33.3816 6.96962C30.307 4.72166 26.6796 3.35107 22.8867 3.00421V6.88427C25.5414 7.18646 28.0891 8.10311 30.3277 9.56152C32.5663 11.0199 34.4343 12.98 35.7835 15.2861C37.1326 17.5923 37.9257 20.1811 38.1 22.8472C38.2742 25.5133 37.8248 28.1833 36.7873 30.6454C36.6705 30.9218 36.5465 31.1943 36.4154 31.4629L39.2739 34.3209C40.8575 31.5155 41.7773 28.3845 41.9627 25.1683C42.1481 21.9522 41.5941 18.7363 40.3433 15.7675Z" fill="black"/>
<path d="M37.0588 37.5049L34.3155 34.7622L34.2745 34.8148L31.5712 32.1115C31.5849 32.0946 31.5975 32.0767 31.6106 32.0589L31.5896 32.0373L31.7395 31.8874C33.1094 30.0262 33.9739 27.8419 34.2488 25.5474C34.5237 23.2528 34.1996 20.9262 33.3082 18.7941C32.4168 16.6619 30.9883 14.797 29.162 13.381C27.3357 11.965 25.1738 11.0461 22.8868 10.7138V14.6317C24.4238 14.9507 25.8581 15.6444 27.0623 16.6513C28.2665 17.6582 29.2033 18.947 29.7893 20.4032C30.3754 21.8594 30.5925 23.4379 30.4215 24.9982C30.2505 26.5586 29.6965 28.0525 28.8089 29.3471L23.3066 23.8448L20.607 26.5449L26.062 31.9994C24.7589 32.8253 23.2749 33.3225 21.7373 33.4483C20.1997 33.5741 18.6546 33.3247 17.2346 32.7216C15.8147 32.1185 14.5624 31.1796 13.5854 29.9857C12.6083 28.7918 11.9357 27.3786 11.6254 25.8674H7.7085C8.03638 28.1519 8.94962 30.3128 10.3595 32.14C11.7694 33.9673 13.6279 35.3987 15.7546 36.2954C17.8812 37.192 20.2036 37.5233 22.4962 37.257C24.7887 36.9908 26.9733 36.136 28.8379 34.7759L31.5491 37.4871L31.5217 37.5081L34.2687 40.2551L34.2955 40.2335L34.3771 40.315L37.0767 37.6133L37.0167 37.5533C37.033 37.5381 37.0446 37.5218 37.0588 37.5049Z" fill="black"/>
<path d="M5.12519 17.2714C6.31346 14.4546 8.23245 12.0062 10.6838 10.1794C13.1352 8.35254 16.0299 7.21352 19.0689 6.88006V3C14.1624 3.43867 9.56574 5.58604 6.08074 9.06748C2.59574 12.5489 0.443676 17.1434 0 22.0494H3.88006C4.06037 20.4047 4.47984 18.795 5.12519 17.2714Z" fill="black"/>
<path d="M8.62688 18.7486C8.17989 19.8047 7.87152 20.9142 7.70947 22.0495H11.6253C12.0017 20.2183 12.9079 18.5381 14.2313 17.2177C15.5546 15.8972 17.2368 14.9947 19.0687 14.6223V10.7081C16.783 11.035 14.6204 11.947 12.7909 13.3558C10.9614 14.7645 9.52703 16.6222 8.62688 18.7486Z" fill="black"/>
<path d="M63.6508 25.2609L62.5461 21.6407H57.0017L55.897 25.2609H52.4272L57.7928 9.98999H61.7381L67.1263 25.2609H63.6508ZM61.7792 18.939C60.7597 15.6586 60.1858 13.8034 60.0574 13.3735C59.9291 12.9435 59.8372 12.6037 59.7818 12.354C59.5528 13.242 58.8973 15.4369 57.8155 18.939H61.7792Z" fill="black"/>
<path d="M72.4728 25.4692C71.1051 25.4692 70.032 24.9386 69.2534 23.8774C68.4749 22.8162 68.0848 21.3454 68.083 19.465C68.083 17.5583 68.48 16.0726 69.274 15.0079C70.0679 13.9432 71.1619 13.4108 72.5559 13.4108C74.0194 13.4108 75.136 13.9795 75.9057 15.1168H76.0109C75.851 14.2499 75.7712 13.4766 75.7716 12.797V9.07471H78.9546V25.2609H76.5207L75.9073 23.7528H75.7721C75.0493 24.8971 73.9496 25.4692 72.4728 25.4692ZM73.5859 22.9411C74.3974 22.9411 74.992 22.7054 75.3697 22.2341C75.7474 21.7628 75.9538 20.9625 75.9888 19.8332V19.4897C75.9888 18.2413 75.796 17.347 75.4102 16.8069C75.0244 16.2669 74.399 15.9956 73.5338 15.9932C72.8261 15.9932 72.2766 16.2932 71.8852 16.8932C71.4938 17.4932 71.2978 18.3652 71.2971 19.5092C71.2971 20.6539 71.4949 21.5122 71.8905 22.0842C72.2861 22.6561 72.8512 22.9418 73.5859 22.9411Z" fill="black"/>
<path d="M88.9612 25.2609L85.2995 13.3293H85.2058C85.3373 15.7564 85.4033 17.3758 85.4036 18.1873V25.2609H82.522V10.0526H86.9118L90.5114 21.6828H90.5735L94.3915 10.0526H98.7813V25.2609H95.775V18.0626C95.775 17.7228 95.7802 17.3309 95.7908 16.8869C95.8013 16.4429 95.8479 15.2639 95.9307 13.3498H95.8376L91.9154 25.2609H88.9612Z" fill="black"/>
<path d="M107.623 25.4692C105.751 25.4692 104.287 24.9525 103.234 23.919C102.18 22.8855 101.653 21.4222 101.652 19.5292C101.652 17.58 102.139 16.0735 103.114 15.0095C104.088 13.9455 105.435 13.4131 107.154 13.4124C108.798 13.4124 110.078 13.8806 110.994 14.8169C111.91 15.7533 112.368 17.0466 112.368 18.697V20.2367H104.866C104.902 21.1383 105.169 21.8422 105.668 22.3482C106.167 22.8543 106.868 23.1075 107.772 23.1078C108.44 23.1113 109.107 23.0378 109.759 22.889C110.433 22.7258 111.089 22.4922 111.714 22.192V24.647C111.15 24.928 110.552 25.136 109.935 25.2662C109.302 25.4015 108.532 25.4692 107.623 25.4692ZM107.176 15.6696C106.504 15.6696 105.977 15.883 105.595 16.3098C105.213 16.7366 104.995 17.3416 104.94 18.1247H109.392C109.378 17.3416 109.173 16.7366 108.778 16.3098C108.383 15.883 107.849 15.6696 107.176 15.6696Z" fill="black"/>
<path d="M119.846 22.941C120.401 22.941 121.067 22.8197 121.845 22.577V24.9384C121.054 25.2923 120.083 25.4692 118.932 25.4692C117.663 25.4692 116.739 25.1485 116.16 24.5071C115.582 23.8656 115.291 22.9039 115.29 21.6217V16.0131H113.771V14.6712L115.518 13.6102L116.433 11.1552H118.464V13.6307H121.72V16.0131H118.464V21.6217C118.464 22.0727 118.59 22.4059 118.844 22.6212C119.097 22.8365 119.431 22.9431 119.846 22.941Z" fill="black"/>
<path d="M130.686 13.4124C131.045 13.4058 131.404 13.4372 131.757 13.5061L131.518 16.4813C131.212 16.4057 130.897 16.3704 130.582 16.3761C129.569 16.3761 128.78 16.6362 128.214 17.1562C127.649 17.6763 127.366 18.4045 127.367 19.3409V25.2609H124.194V13.6307H126.597L127.065 15.5865H127.223C127.571 14.9469 128.073 14.4044 128.684 14.0084C129.278 13.6166 129.974 13.4092 130.686 13.4124Z" fill="black"/>
<path d="M133.734 10.6244C133.734 9.59128 134.31 9.07471 135.461 9.07471C136.612 9.07471 137.188 9.59128 137.188 10.6244C137.188 11.1154 137.044 11.4985 136.756 11.7738C136.468 12.0491 136.036 12.1862 135.461 12.1852C134.309 12.1852 133.734 11.6649 133.734 10.6244ZM137.042 25.2609H133.869V13.6307H137.042V25.2609Z" fill="black"/>
<path d="M145.093 25.4692C141.473 25.4692 139.663 23.4822 139.663 19.5081C139.663 17.532 140.155 16.0219 141.14 14.9779C142.125 13.9339 143.536 13.4121 145.374 13.4124C146.719 13.4124 147.926 13.6754 148.994 14.2015L148.058 16.6565C147.559 16.4555 147.094 16.2909 146.664 16.1625C146.246 16.036 145.811 15.9711 145.374 15.97C143.724 15.97 142.898 17.142 142.898 19.4861C142.898 21.7606 143.724 22.8979 145.374 22.8979C145.949 22.9031 146.52 22.8208 147.07 22.6539C147.624 22.4743 148.149 22.2168 148.63 21.889V24.6039C148.153 24.9144 147.628 25.1431 147.075 25.2804C146.552 25.4063 145.892 25.4692 145.093 25.4692Z" fill="black"/>
<path d="M159.439 21.8074C159.439 22.9998 159.024 23.9083 158.196 24.5328C157.367 25.1574 156.127 25.4695 154.477 25.4692C153.631 25.4692 152.91 25.412 152.313 25.2977C151.738 25.1896 151.177 25.0203 150.638 24.7927V22.1714C151.278 22.4666 151.945 22.7 152.63 22.8684C153.369 23.0557 154.019 23.1494 154.581 23.1494C155.732 23.1494 156.307 22.8162 156.308 22.1499C156.312 22.0384 156.294 21.9271 156.255 21.8226C156.216 21.7181 156.156 21.6226 156.079 21.5418C155.926 21.3854 155.663 21.2084 155.29 21.011C154.916 20.8136 154.417 20.583 153.792 20.3193C152.897 19.9447 152.24 19.5979 151.821 19.2788C151.401 18.9596 151.096 18.5939 150.905 18.1814C150.714 17.769 150.619 17.2605 150.619 16.6559C150.619 15.6228 151.02 14.8236 151.821 14.2583C152.622 13.6929 153.757 13.4103 155.227 13.4103C156.641 13.413 158.036 13.7254 159.316 14.3256L158.359 16.6144C157.776 16.3643 157.232 16.1597 156.728 16.0005C156.227 15.8418 155.704 15.7611 155.178 15.7611C154.241 15.7611 153.773 16.0143 153.774 16.5207C153.774 16.8055 153.925 17.051 154.226 17.2572C154.528 17.4634 155.188 17.772 156.208 18.183C157.116 18.5509 157.783 18.8942 158.207 19.213C158.631 19.5318 158.943 19.9 159.143 20.3177C159.34 20.7354 159.439 21.2319 159.439 21.8074Z" fill="black"/>
<path d="M172.671 14.7959C172.671 16.4329 172.16 17.6847 171.137 18.5513C170.114 19.4178 168.659 19.8513 166.771 19.8517H165.387V25.2609H162.162V10.0526H167.021C168.865 10.0526 170.268 10.4496 171.229 11.2436C172.19 12.0375 172.671 13.2216 172.671 14.7959ZM165.389 17.2094H166.45C167.442 17.2094 168.184 17.0135 168.677 16.6218C169.169 16.2301 169.414 15.6597 169.413 14.9106C169.413 14.1548 169.207 13.5965 168.794 13.2357C168.381 12.8748 167.734 12.6946 166.854 12.6949H165.387L165.389 17.2094Z" fill="black"/>
<path d="M181.784 13.4124C182.143 13.4058 182.502 13.4372 182.855 13.5061L182.616 16.4813C182.31 16.4057 181.995 16.3704 181.68 16.3761C180.667 16.3761 179.878 16.6362 179.313 17.1562C178.747 17.6763 178.464 18.4045 178.465 19.3409V25.2609H175.292V13.6307H177.696L178.164 15.5865H178.322C178.67 14.9469 179.172 14.4044 179.783 14.0084C180.377 13.6168 181.073 13.4094 181.784 13.4124Z" fill="black"/>
<path d="M195.536 19.425C195.536 21.3188 195.037 22.7994 194.038 23.8669C193.039 24.9344 191.649 25.4685 189.866 25.4692C188.75 25.4692 187.765 25.2248 186.912 24.7359C186.059 24.2471 185.404 23.5448 184.946 22.6291C184.488 21.7138 184.259 20.6458 184.259 19.425C184.259 17.525 184.755 16.0479 185.747 14.9937C186.739 13.9395 188.133 13.4124 189.929 13.4124C191.045 13.4124 192.03 13.6551 192.883 14.1405C193.736 14.6258 194.392 15.3228 194.849 16.2315C195.307 17.1401 195.536 18.2046 195.536 19.425ZM187.495 19.425C187.495 20.5764 187.684 21.4468 188.061 22.0363C188.439 22.6258 189.055 22.9206 189.908 22.9206C190.754 22.9206 191.363 22.6276 191.734 22.0415C192.105 21.4555 192.29 20.5834 192.29 19.425C192.29 18.2741 192.103 17.4107 191.728 16.8348C191.354 16.259 190.74 15.9712 189.887 15.9716C189.041 15.9716 188.43 16.2576 188.056 16.8296C187.682 17.4015 187.495 18.2667 187.495 19.425Z" fill="black"/>
<path d="M56.0611 38.4645L55.6472 37.1057H53.5661L53.1527 38.4645H51.8486L53.8628 32.7333H55.3426L57.3652 38.4645H56.0611ZM55.3584 36.091C54.9761 34.8593 54.7608 34.163 54.7124 34.0021C54.664 33.8406 54.6298 33.7133 54.6072 33.6197C54.5216 33.9525 54.2761 34.7766 53.8707 36.092L55.3584 36.091Z" fill="black"/>
<path d="M64.4981 38.4645L63.1246 33.9863H63.0894C63.1388 34.8981 63.1635 35.5058 63.1635 35.8095V38.4645H62.0825V32.7564H63.7301L65.0809 37.1225H65.1041L66.537 32.7564H68.1846V38.4645H67.0562V35.7627C67.0562 35.6354 67.0562 35.4881 67.062 35.3219C67.0678 35.1557 67.0836 34.7127 67.1146 33.9942H67.0799L65.607 38.4655L64.4981 38.4645Z" fill="black"/>
<path d="M77.5613 34.5371C77.5613 35.1515 77.3695 35.6212 76.9858 35.9463C76.6022 36.2714 76.0561 36.4341 75.3477 36.4345H74.8285V38.4645H73.6187V32.7564H75.4419C76.1342 32.7564 76.6602 32.9055 77.02 33.2035C77.3798 33.5016 77.5603 33.9461 77.5613 34.5371ZM74.8259 35.4429H75.2241C75.5962 35.4429 75.8747 35.3692 76.0595 35.222C76.2443 35.0747 76.3367 34.8606 76.3367 34.5797C76.3367 34.2963 76.2594 34.0869 76.1047 33.9516C75.9501 33.8162 75.709 33.7485 75.3814 33.7485H74.8312L74.8259 35.4429Z" fill="black"/>
<path d="M90.4882 35.1067L91.6791 32.7564H92.9832L91.0894 36.243V38.4645H89.8869V36.2819L87.9932 32.7575H89.3046L90.4882 35.1067Z" fill="black"/>
<path d="M102.88 35.6028C102.88 36.5476 102.646 37.2737 102.177 37.7811C101.709 38.2886 101.037 38.5425 100.162 38.5428C99.288 38.5428 98.6166 38.2889 98.1481 37.7811C97.6796 37.2733 97.4453 36.5446 97.4453 35.5949C97.4453 34.6449 97.6803 33.9193 98.1502 33.4182C98.6201 32.917 99.2935 32.6666 100.17 32.667C101.047 32.667 101.718 32.9195 102.183 33.4245C102.648 33.9295 102.88 34.6556 102.88 35.6028ZM98.7141 35.6028C98.7141 36.2404 98.8351 36.7206 99.0771 37.0436C99.3191 37.3666 99.6808 37.5279 100.162 37.5276C101.128 37.5276 101.611 36.886 101.611 35.6028C101.611 34.3196 101.131 33.6768 100.17 33.6744C99.6887 33.6744 99.3257 33.8364 99.0813 34.1604C98.8369 34.4845 98.7145 34.9653 98.7141 35.6028Z" fill="black"/>
<path d="M112.707 32.7564V36.4503C112.716 36.8386 112.618 37.222 112.424 37.5586C112.232 37.8794 111.946 38.1341 111.606 38.2888C111.249 38.4581 110.828 38.5428 110.341 38.5428C109.607 38.5428 109.037 38.3547 108.631 37.9784C108.225 37.6021 108.022 37.0875 108.022 36.4345V32.7564H109.228V36.2509C109.228 36.6906 109.317 37.0135 109.494 37.2193C109.671 37.4252 109.964 37.5279 110.372 37.5276C110.768 37.5276 111.055 37.4241 111.233 37.2172C111.411 37.0103 111.5 36.6856 111.501 36.243V32.7564H112.707Z" fill="black"/>
<path d="M119.313 36.2746V38.4645H118.103V32.7564H119.766C120.542 32.7564 121.116 32.8977 121.488 33.1804C121.861 33.4631 122.047 33.8918 122.046 34.4666C122.05 34.7864 121.953 35.0994 121.769 35.3608C121.569 35.6343 121.297 35.8471 120.984 35.9758C121.843 37.2586 122.403 38.0875 122.663 38.4623H121.32L119.957 36.2725L119.313 36.2746ZM119.313 35.2903H119.703C120.086 35.2903 120.368 35.2267 120.551 35.0994C120.733 34.9721 120.824 34.7717 120.824 34.4981C120.824 34.2274 120.731 34.0345 120.544 33.9195C120.358 33.8045 120.07 33.7473 119.68 33.748H119.311L119.313 35.2903Z" fill="black"/>
<path d="M134.666 36.2746V38.4645H133.456V32.7564H135.119C135.895 32.7564 136.469 32.8977 136.841 33.1804C137.214 33.4631 137.4 33.8918 137.399 34.4666C137.403 34.7864 137.306 35.0994 137.122 35.3608C136.922 35.6341 136.65 35.8469 136.337 35.9758C137.196 37.2586 137.756 38.0875 138.016 38.4623H136.673L135.31 36.2725L134.666 36.2746ZM134.666 35.2903H135.056C135.439 35.2903 135.721 35.2267 135.903 35.0994C136.085 34.9721 136.176 34.7717 136.177 34.4981C136.177 34.2274 136.084 34.0345 135.897 33.9195C135.711 33.8045 135.423 33.7473 135.033 33.748H134.664L134.666 35.2903Z" fill="black"/>
<path d="M146.017 38.4645H142.73V32.7564H146.017V33.7485H143.94V35.0015H145.873V35.9931H143.94V37.466H146.017V38.4645Z" fill="black"/>
<path d="M154.462 32.7564H155.684L153.743 38.4645H152.424L150.487 32.7564H151.709L152.783 36.1536C152.843 36.3538 152.904 36.5874 152.968 36.8542C153.032 37.1211 153.072 37.3065 153.087 37.4103C153.116 37.1711 153.214 36.7522 153.38 36.1536L154.462 32.7564Z" fill="black"/>
<path d="M163.688 38.4645H160.401V32.7564H163.688V33.7485H161.611V35.0015H163.546V35.9931H161.613V37.466H163.69L163.688 38.4645Z" fill="black"/>
<path d="M173.94 38.4645H172.401L169.919 34.1467H169.883C169.933 34.9091 169.958 35.4527 169.958 35.7774V38.4634H168.876V32.7564H170.401L172.881 37.0315H172.908C172.869 36.2898 172.85 35.7654 172.85 35.4581V32.7564H173.939L173.94 38.4645Z" fill="black"/>
<path d="M184.021 32.7564V36.4503C184.029 36.8386 183.931 37.222 183.738 37.5586C183.545 37.8794 183.26 38.1341 182.92 38.2888C182.563 38.4581 182.142 38.5428 181.657 38.5428C180.923 38.5428 180.353 38.3547 179.948 37.9784C179.542 37.6021 179.339 37.0875 179.338 36.4345V32.7564H180.545V36.2509C180.545 36.6906 180.632 37.0135 180.808 37.2193C180.983 37.4252 181.276 37.5279 181.686 37.5276C182.082 37.5276 182.369 37.4241 182.547 37.2172C182.725 37.0103 182.814 36.6856 182.814 36.243V32.7564H184.021Z" fill="black"/>
<path d="M192.704 38.4645H189.417V32.7564H192.704V33.7485H190.627V35.0015H192.56V35.9931H190.627V37.466H192.704V38.4645Z" fill="black"/>
</g>
<defs>
<clipPath id="clip0_424_5197">
<rect width="195.536" height="48" fill="black"/>
</clipPath>
</defs>
</svg>
